<svg xmlns="http://www.w3.org/2000/svg" width="500" height="500" viewBox="0 0 500 500" version="1.1">
	<path d="M 483.629 1.510 C 482.049 2.333, 475.677 7.892, 469.467 13.862 C 426.439 55.226, 380.353 84.931, 309.500 116.968 C 299.600 121.445, 290.445 125.796, 289.156 126.638 C 287.868 127.480, 285.935 130.153, 284.862 132.578 C 282.928 136.952, 282.891 136.975, 280.436 135.366 C 276.159 132.564, 270.745 134.086, 252.500 143.219 C 243.150 147.900, 231.450 154.105, 226.500 157.008 C 202.151 171.288, 176.005 192.149, 174.389 198.586 C 174.019 200.059, 174.008 205.710, 174.364 211.143 L 175.011 221.021 170.756 217.920 C 167.165 215.305, 165.836 214.893, 162.251 215.287 C 157.044 215.859, 156.097 216.623, 149.444 225.619 C 120.164 265.212, 98.781 323.274, 92.271 380.863 L 90.534 396.226 74.043 411.863 C 43.114 441.190, 4.505 479.040, 2.250 482.245 C -4.666 492.077, 7.210 504.869, 17.103 498.243 C 18.535 497.285, 33.160 483.405, 49.603 467.399 C 66.046 451.394, 85.800 432.364, 93.500 425.110 C 106.988 412.404, 107.628 411.943, 111 412.501 C 112.925 412.820, 121.025 413.333, 129 413.643 C 150.300 414.468, 168.526 411.059, 195.164 401.266 C 251.951 380.389, 323.167 324.849, 386.149 252.321 C 449.341 179.550, 489.705 101.525, 498.559 35.030 C 500.410 21.127, 500.404 9.682, 498.544 6.085 C 497.056 3.208, 491.668 -0.005, 488.349 0.006 C 487.332 0.010, 485.208 0.686, 483.629 1.510 M 464 49.592 C 428.360 80.874, 381.933 109.465, 326 134.572 C 315.275 139.387, 305.991 143.815, 305.370 144.413 C 304.748 145.011, 301.902 152.576, 299.046 161.224 C 294.807 174.056, 293.300 177.412, 290.849 179.474 C 287.066 182.657, 282.419 182.750, 277.898 179.733 C 275.127 177.884, 274.039 176.051, 272 169.799 C 270.625 165.583, 269.209 161.850, 268.854 161.504 C 268.144 160.812, 254.019 167.682, 241.500 174.807 C 230.368 181.142, 211.821 193.784, 203.626 200.622 L 196.752 206.357 197.369 212.261 C 197.709 215.508, 199.340 222.203, 200.993 227.139 C 205.031 239.190, 204.947 242.253, 200.461 246.739 L 196.923 250.277 188.711 249.763 C 182.380 249.367, 178.908 248.528, 173.547 246.096 C 169.723 244.361, 166.114 243.126, 165.526 243.352 C 163.495 244.131, 152.045 263.606, 145.140 278.026 C 137.212 294.581, 130.285 313.110, 125.506 330.547 C 121.520 345.093, 116.700 368.221, 117.165 370.579 C 117.411 371.831, 122.393 368.073, 136 356.371 C 160.470 335.326, 181.941 318.226, 219.610 289.783 C 279.459 244.592, 304.247 223.520, 353.081 176.323 C 363.660 166.098, 370.628 160.113, 372.331 159.788 C 376.575 158.976, 379.874 160.027, 383.049 163.203 C 385.464 165.618, 386.004 167.002, 386.023 170.827 L 386.046 175.500 366.235 195 C 325.040 235.547, 294.363 261.827, 242.500 301 C 193.833 337.760, 175.957 351.955, 147 376.837 C 139.025 383.690, 132.050 389.736, 131.500 390.273 C 130.849 390.909, 133.773 391.016, 139.881 390.579 C 184.626 387.380, 237.484 360.377, 294.648 311.515 C 311.584 297.039, 341.836 267.325, 359.315 248 C 418.024 183.090, 457.693 113.980, 471.983 51.711 C 473.092 46.877, 474 42.715, 474 42.461 C 474 41.182, 471.768 42.773, 464 49.592" stroke="none" fill="black" fill-rule="evenodd"/>
</svg>